<?xml version="1.0" encoding="UTF-8" standalone="no"?>
<!-- Created with Inkscape (http://www.inkscape.org/) -->

<svg
   width="102.15974mm"
   height="85.029388mm"
   viewBox="0 0 102.15973 85.029386"
   version="1.1"
   id="svg1"
   xml:space="preserve"
   inkscape:version="1.4 (86a8ad7, 2024-10-11)"
   sodipodi:docname="logo_vertical_mono.svg"
   xmlns:inkscape="http://www.inkscape.org/namespaces/inkscape"
   xmlns:sodipodi="http://sodipodi.sourceforge.net/DTD/sodipodi-0.dtd"
   xmlns="http://www.w3.org/2000/svg"
   xmlns:svg="http://www.w3.org/2000/svg"><sodipodi:namedview
     id="namedview1"
     pagecolor="#ffffff"
     bordercolor="#000000"
     borderopacity="0.25"
     inkscape:showpageshadow="2"
     inkscape:pageopacity="0.0"
     inkscape:pagecheckerboard="0"
     inkscape:deskcolor="#d1d1d1"
     inkscape:document-units="mm"
     inkscape:zoom="1"
     inkscape:cx="2.5"
     inkscape:cy="127.5"
     inkscape:window-width="1920"
     inkscape:window-height="991"
     inkscape:window-x="-9"
     inkscape:window-y="-9"
     inkscape:window-maximized="1"
     inkscape:current-layer="layer1" /><defs
     id="defs1" /><g
     inkscape:label="Layer 1"
     inkscape:groupmode="layer"
     id="layer1"
     transform="translate(-48.027464,-91.315528)"><path
       style="fill:#000000;fill-opacity:1;stroke-width:0.366978"
       d="m 71.926737,150.32923 c -0.522968,-0.52297 -0.286128,-0.88815 1.636444,-2.52326 3.420556,-2.90909 6.430431,-6.04989 8.903265,-9.29053 0.692926,-0.90807 1.368374,-1.70912 1.500994,-1.7801 0.36559,-0.19565 1.070305,-0.15458 1.408175,0.082 0.165773,0.11612 0.38342,0.40741 0.48366,0.64731 0.157067,0.37592 0.156691,0.49738 -0.0027,0.87891 -0.369848,0.88518 -10.126007,10.20087 -11.664744,11.3321 -1.360127,0.98513 -1.805069,1.1135 -2.265067,0.6535 z M 82.3805,148.87446 c -0.391174,-0.13232 -0.563741,-0.55366 -0.416622,-1.01718 0.05059,-0.15938 0.995618,-1.22679 2.100074,-2.37202 1.104456,-1.14523 2.732808,-2.90776 3.618562,-3.91673 0.885754,-1.00898 1.698477,-1.86827 1.806051,-1.90956 0.875846,-0.33609 1.857416,0.34247 1.857416,1.28403 0,0.58567 -2.819931,3.42699 -6.667274,6.71784 -1.42159,1.21596 -1.7612,1.3953 -2.298207,1.21362 z m 17.84283,-3.0209 c -0.269997,-0.27 -0.260097,-0.39262 0.12699,-1.57266 1.00289,-3.05742 0.85507,-5.96713 -0.433227,-8.52757 l -0.485317,-0.96456 -1.353254,1.28684 c -0.296947,0.28238 -1.098364,1.04044 -1.464839,1.40732 -0.400015,0.37785 -0.531429,0.5936 -1.08265,0.50415 -1.078377,-0.17499 -4.552843,-2.17836 -4.828951,-2.78434 -0.07748,-0.17006 -0.102435,-0.43358 -0.05545,-0.58561 0.209347,-0.67735 9.231171,-13.52666 10.528648,-14.9954 0.68807,-0.77888 1.60404,-1.22182 3.04783,-1.47383 1.9399,-0.3386 3.15577,-0.95562 4.35829,-2.21172 0.70304,-0.73437 3.77983,-5.02344 6.11215,-8.5204 1.11413,-1.67044 1.63851,-2.57161 1.63851,-2.81578 0,-0.46877 -0.41924,-0.87695 -0.90071,-0.87695 -0.43787,0 -0.37678,-0.0698 -2.45319,2.80213 -1.76179,2.43674 -3.93362,5.28185 -4.45759,5.83943 -0.64584,0.68728 -1.64606,0.49694 -1.83176,-0.34859 -0.10099,-0.45979 0.0118,-0.68622 0.97067,-1.94936 0.40541,-0.53403 1.79437,-2.4186 3.08657,-4.18794 2.48704,-3.40535 2.62775,-3.68986 2.09055,-4.22706 -0.39267,-0.39267 -0.91812,-0.33086 -1.37559,0.16182 -0.42765,0.46057 -1.85355,2.26786 -4.31545,5.46976 -2.08999,2.71819 -2.27848,2.91289 -2.81999,2.91289 -0.54736,0 -1.06987,-0.4883 -1.06733,-0.99745 8.9e-4,-0.27043 0.83575,-1.47181 3.30128,-4.75329 3.54152,-4.713566 3.61885,-4.854028 2.95834,-5.373578 -0.432,-0.339816 -0.69992,-0.338474 -1.13747,0.0058 -0.75672,0.595238 -6.96368,8.215568 -8.22773,10.101238 -1.221671,1.82247 -1.295881,2.1952 -1.156264,5.80746 0.0732,1.89235 0.082,1.27286 -5.741689,8.77169 -2.155149,2.77506 -4.509979,5.22642 -6.657754,7.72905 -0.306634,0.35729 -1.006186,-0.16201 -2.11043,-1.24887 -1.029774,-1.01356 -1.943936,-2.28561 -1.943936,-2.70495 0,-0.15619 0.491993,-1.15282 1.093316,-2.21474 0.687482,-1.21407 1.035884,-1.95094 0.938597,-1.98513 -0.48649,-0.17097 -2.032226,-0.3186 -3.344592,-0.31945 -2.338574,-0.002 -4.260784,0.45344 -6.354689,1.50408 -0.932028,0.46767 -1.252209,0.52781 -1.498514,0.28151 -0.270855,-0.27085 -0.175569,-0.5858 0.683377,-2.25875 2.543798,-4.95451 5.974976,-8.51693 9.750679,-10.12364 1.791671,-0.76242 2.971862,-0.97984 5.350656,-0.9857 l 2.152402,-0.005 1.432937,-2.15997 c 4.275492,-6.44476 7.302244,-9.621984 11.998494,-12.594918 1.35437,-0.857382 4.52504,-2.431139 6.23804,-3.096239 2.65813,-1.032073 6.05605,-1.896613 8.52059,-2.167909 1.61302,-0.177562 2.04354,-0.114949 2.34203,0.340608 0.58602,0.894368 0.88982,5.446923 0.56407,8.452738 -0.35417,3.26809 -1.42777,7.21429 -2.81152,10.33422 -2.02312,4.56151 -5.29598,9.27637 -9.2565,13.33484 l -1.02539,1.05074 0.21792,0.42139 c 0.42519,0.82223 0.85821,2.87002 0.93112,4.40333 0.21642,4.5519 -1.93794,9.08403 -6.49615,13.66594 -2.40989,2.42242 -3.23104,2.95788 -3.74613,2.44279 z m -27.489341,-2.90558 c -0.337771,-0.13892 -0.594569,-0.70801 -0.493393,-1.09343 0.03811,-0.1452 0.801041,-1.05046 1.695397,-2.01171 1.83271,-1.9698 3.188653,-3.65913 4.650555,-5.79402 0.54876,-0.80138 1.106083,-1.51504 1.238497,-1.58592 0.471497,-0.25233 1.136517,-0.14975 1.576241,0.24315 0.583663,0.52149 0.567473,1.07884 -0.05771,1.98658 -1.050964,1.52595 -2.848821,3.62916 -4.626763,5.41257 -2.749985,2.75845 -3.275605,3.13362 -3.982828,2.84278 z"
       id="path4"
       sodipodi:nodetypes="sssssscsssssssssssssscscsssssssssssssssssscssssssssssccssssscsssssssscsssssssssssss" /><text
       xml:space="preserve"
       style="font-style:normal;font-variant:normal;font-weight:bold;font-stretch:normal;font-size:19.7556px;font-family:'Segoe UI';-inkscape-font-specification:'Segoe UI, Bold';font-variant-ligatures:normal;font-variant-caps:normal;font-variant-numeric:normal;font-variant-east-asian:normal;text-align:center;letter-spacing:0px;writing-mode:lr-tb;direction:ltr;text-anchor:middle;fill:none;stroke:#000000;stroke-width:0.0661458;stroke-linecap:round;stroke-linejoin:round"
       x="98.533379"
       y="176.10376"
       id="text4"><tspan
         sodipodi:role="line"
         id="tspan4"
         style="font-style:normal;font-variant:normal;font-weight:bold;font-stretch:normal;font-size:19.7556px;font-family:'Segoe UI';-inkscape-font-specification:'Segoe UI, Bold';font-variant-ligatures:normal;font-variant-caps:normal;font-variant-numeric:normal;font-variant-east-asian:normal;fill:#000000;fill-opacity:1;stroke:none;stroke-width:0.0661458"
         x="98.533379"
         y="176.10376"
         dx="0 -0.56126601 -0.56126601 -0.46772167 -1.2160765 -0.93544334 -0.37417734 -0.65481037 -0.93544334 -0.65481037">FoodRocket</tspan></text></g></svg>
