<?xml version="1.0" encoding="UTF-8" standalone="no"?>
<!-- Created with Inkscape (http://www.inkscape.org/) -->

<svg
   width="131.70305mm"
   height="32.580032mm"
   viewBox="0 0 131.70305 32.580031"
   version="1.1"
   id="svg1"
   xml:space="preserve"
   inkscape:version="1.4 (86a8ad7, 2024-10-11)"
   sodipodi:docname="logo_full_white.svg"
   xmlns:inkscape="http://www.inkscape.org/namespaces/inkscape"
   xmlns:sodipodi="http://sodipodi.sourceforge.net/DTD/sodipodi-0.dtd"
   xmlns="http://www.w3.org/2000/svg"
   xmlns:svg="http://www.w3.org/2000/svg"><sodipodi:namedview
     id="namedview1"
     pagecolor="#ffffff"
     bordercolor="#000000"
     borderopacity="0.25"
     inkscape:showpageshadow="2"
     inkscape:pageopacity="0.0"
     inkscape:pagecheckerboard="0"
     inkscape:deskcolor="#d1d1d1"
     inkscape:document-units="mm"
     inkscape:zoom="1.4142136"
     inkscape:cx="191.97949"
     inkscape:cy="43.487066"
     inkscape:window-width="1920"
     inkscape:window-height="991"
     inkscape:window-x="-9"
     inkscape:window-y="-9"
     inkscape:window-maximized="1"
     inkscape:current-layer="layer1" /><defs
     id="defs1" /><g
     inkscape:label="Layer 1"
     inkscape:groupmode="layer"
     id="layer1"
     transform="translate(-34.007392,-26.065154)"><path
       style="fill:#f54900;fill-opacity:1;stroke-width:0.201725"
       d="m 34.139711,58.504731 c -0.287472,-0.287469 -0.157283,-0.488209 0.899541,-1.387012 1.880254,-1.599111 3.534761,-3.325584 4.89406,-5.10694 0.380896,-0.499164 0.752185,-0.939491 0.825086,-0.978507 0.200961,-0.107553 0.588338,-0.08497 0.774062,0.04511 0.09112,0.06382 0.210763,0.223946 0.265865,0.35582 0.08634,0.206639 0.08613,0.273404 -0.0015,0.483132 -0.203304,0.486574 -5.566193,5.607344 -6.412026,6.229168 -0.747652,0.54152 -0.992232,0.612085 -1.24509,0.359228 z m 5.746357,-0.799669 c -0.215026,-0.07275 -0.309884,-0.304345 -0.229015,-0.55914 0.02781,-0.08761 0.547285,-0.674359 1.154397,-1.303883 0.60711,-0.629522 1.502204,-1.598373 1.989096,-2.153003 0.486893,-0.554625 0.933641,-1.026975 0.992774,-1.049667 0.481446,-0.18475 1.021007,0.188249 1.021007,0.705819 0,0.321942 -1.550096,1.883794 -3.664952,3.692747 -0.781437,0.668408 -0.968119,0.766987 -1.263307,0.667127 z m 9.808085,-1.660575 c -0.148416,-0.148416 -0.142976,-0.215811 0.0698,-0.864478 0.551288,-1.680645 0.470031,-3.280089 -0.23814,-4.687546 l -0.266779,-0.530208 -0.743872,0.707365 c -0.163235,0.155223 -0.603766,0.571923 -0.805217,0.773595 -0.219885,0.207701 -0.292125,0.326299 -0.595126,0.277129 -0.592776,-0.0962 -2.502665,-1.197427 -2.654439,-1.530535 -0.04259,-0.09348 -0.0563,-0.238334 -0.03048,-0.321903 0.115072,-0.372335 5.074312,-7.435505 5.787531,-8.242863 0.378222,-0.428146 0.881727,-0.671624 1.675367,-0.810152 1.066346,-0.186126 1.7347,-0.5253 2.395714,-1.215766 0.386458,-0.40368 2.077749,-2.76135 3.359808,-4.6836 0.612422,-0.918232 0.900676,-1.413598 0.900676,-1.547819 0,-0.257679 -0.230454,-0.482053 -0.495116,-0.482053 -0.240693,0 -0.207114,-0.03836 -1.348501,1.540313 -0.96844,1.339461 -2.162281,2.903394 -2.450301,3.209892 -0.355016,0.377792 -0.904827,0.273163 -1.006909,-0.191616 -0.0555,-0.252741 0.0064,-0.377212 0.533571,-1.071547 0.22285,-0.293553 0.986351,-1.329491 1.696667,-2.302084 1.367108,-1.871898 1.444452,-2.02829 1.149157,-2.323583 -0.215843,-0.215845 -0.504678,-0.181865 -0.756151,0.08895 -0.23508,0.253169 -1.018882,1.246625 -2.37217,3.006685 -1.148851,1.49417 -1.25246,1.601192 -1.55012,1.601192 -0.300883,0 -0.588106,-0.268415 -0.586706,-0.548289 7.94e-4,-0.148654 0.459404,-0.809046 1.814687,-2.612848 1.946747,-2.591008 1.989253,-2.668218 1.626179,-2.953812 -0.23747,-0.186794 -0.384748,-0.186056 -0.625264,0.0031 -0.415965,0.327198 -3.827878,4.516031 -4.522716,5.552572 -0.671549,1.0018 -0.712341,1.206684 -0.635595,3.192314 0.04021,1.040217 0.04508,0.699686 -3.156169,4.821737 -1.18467,1.525429 -2.479103,2.872926 -3.659719,4.248599 -0.168555,0.196405 -0.553093,-0.08905 -1.160089,-0.686489 -0.566061,-0.557091 -1.068568,-1.25632 -1.068568,-1.486833 0,-0.08585 0.270443,-0.633698 0.600987,-1.217426 0.377903,-0.667366 0.569417,-1.072418 0.51594,-1.091213 -0.26742,-0.09398 -1.1171,-0.175131 -1.838498,-0.175599 -1.285497,-7.93e-4 -2.342122,0.249256 -3.493126,0.826788 -0.512329,0.257068 -0.688329,0.290131 -0.823722,0.154737 -0.148887,-0.148885 -0.09651,-0.32201 0.375647,-1.241619 1.398307,-2.723457 3.284401,-4.681691 5.359877,-5.564886 0.984868,-0.419098 1.633611,-0.53861 2.941217,-0.541831 l 1.183159,-0.0029 0.787675,-1.18732 c 2.35021,-3.542641 4.014,-5.289134 6.595488,-6.923334 0.74449,-0.471296 2.487384,-1.336378 3.429003,-1.701979 1.461159,-0.567323 3.328972,-1.042555 4.683703,-1.191684 0.886667,-0.0976 1.123325,-0.06319 1.287405,0.18723 0.322126,0.491627 0.489123,2.994133 0.310064,4.646406 -0.194686,1.796438 -0.784837,3.965637 -1.545471,5.68064 -1.112096,2.50743 -2.911167,5.099157 -5.088233,7.330066 l -0.563645,0.577585 0.119783,0.231637 c 0.233724,0.451971 0.471753,1.577628 0.511828,2.420476 0.118968,2.502141 -1.065263,4.993418 -3.570875,7.512062 -1.324698,1.331587 -1.776082,1.625924 -2.059222,1.342785 z M 34.583452,54.447311 c -0.185671,-0.07636 -0.32683,-0.389188 -0.271216,-0.601051 0.02095,-0.07981 0.440328,-0.577427 0.931949,-1.105823 1.007425,-1.08278 1.752778,-2.011397 2.556375,-3.18493 0.30165,-0.440512 0.608006,-0.832806 0.680792,-0.871761 0.259179,-0.138707 0.624736,-0.08232 0.866448,0.133651 0.320836,0.286666 0.311937,0.593036 -0.03172,1.09201 -0.577708,0.838805 -1.565976,1.994922 -2.543298,2.975253 -1.511646,1.516301 -1.800576,1.722526 -2.18933,1.562651 z"
       id="path4"
       sodipodi:nodetypes="sssssscsssssssssssssscscsssssssssssssssssscssssssssssccssssscsssssssscsssssssssssss" /><text
       xml:space="preserve"
       style="font-style:normal;font-variant:normal;font-weight:bold;font-stretch:normal;font-size:19.7556px;font-family:'Segoe UI';-inkscape-font-specification:'Segoe UI, Bold';font-variant-ligatures:normal;font-variant-caps:normal;font-variant-numeric:normal;font-variant-east-asian:normal;text-align:center;letter-spacing:0px;writing-mode:lr-tb;direction:ltr;text-anchor:middle;fill:none;stroke:#000000;stroke-width:0.0661458;stroke-linecap:round;stroke-linejoin:round"
       x="114.05662"
       y="51.136379"
       id="text4"><tspan
         sodipodi:role="line"
         id="tspan4"
         style="font-style:normal;font-variant:normal;font-weight:bold;font-stretch:normal;font-size:19.7556px;font-family:'Segoe UI';-inkscape-font-specification:'Segoe UI, Bold';font-variant-ligatures:normal;font-variant-caps:normal;font-variant-numeric:normal;font-variant-east-asian:normal;fill:#ffffff;fill-opacity:1;stroke:none;stroke-width:0.0661458"
         x="114.05662"
         y="51.136379"
         dx="0 -0.56126601 -0.56126601 -0.46772167 -1.2160765 -0.93544334 -0.37417734 -0.65481037 -0.93544334 -0.65481037">FoodRocket</tspan></text></g></svg>
